<svg version="1.0" xmlns="http://www.w3.org/2000/svg"
    width="100.000000pt" height="100.000000pt" viewBox="0 0 900.000000 1200.000000"
    preserveAspectRatio="xMidYMid meet">

    <g transform="translate(0.000000,1350.000000) scale(0.100000,-0.100000)"
        fill="#fff" stroke="none">
        <path
            d="M2394 11360 c-82 -12 -149 -38 -180 -71 l-29 -30 0 -2099 0 -2099 30
-31 c84 -87 433 -107 585 -32 99 48 90 -80 90 1343 0 955 3 1248 12 1257 9 9
268 12 1103 12 1045 0 1093 -1 1108 -18 16 -17 17 -114 17 -1195 l0 -1177
-200 0 c-223 0 -264 -8 -276 -55 -8 -34 2 -84 23 -107 15 -16 36 -18 228 -18
158 0 215 -3 223 -12 7 -9 -24 -91 -110 -288 -332 -764 -478 -1110 -478 -1129
0 -27 17 -62 39 -78 21 -16 83 -16 104 0 13 9 219 481 629 1437 10 25 26 51
35 58 13 9 208 12 894 12 799 0 878 -1 890 -16 8 -9 136 -319 286 -688 151
-369 282 -682 292 -696 30 -41 92 -78 161 -97 50 -14 104 -18 240 -18 196 0
246 10 293 56 24 24 28 36 24 62 -3 18 -240 581 -527 1252 -287 671 -693 1621
-902 2110 -253 591 -390 899 -407 918 -52 53 -145 42 -191 -23 -11 -16 -258
-576 -549 -1245 -291 -669 -532 -1219 -535 -1222 -3 -4 -6 871 -6 1943 0 1072
-4 1954 -8 1960 -30 45 -136 42 -159 -5 -4 -9 -10 -355 -13 -769 -4 -655 -7
-754 -20 -762 -24 -15 -2193 -13 -2208 2 -9 9 -12 182 -12 718 0 810 6 755
-90 802 -86 42 -264 59 -406 38z m3905 -2347 c22 -18 128 -266 537 -1256 118
-285 212 -523 208 -528 -7 -11 -1591 -12 -1598 -1 -4 7 182 442 654 1524 57
131 112 247 122 258 23 25 49 26 77 3z" />
        <path
            d="M3887 5304 c-4 -4 -7 -101 -7 -216 l0 -208 30 0 30 0 0 125 0 125
110 0 110 0 0 -125 c0 -77 4 -125 10 -125 6 0 10 76 10 209 0 129 -4 212 -10
216 -6 4 -10 -23 -10 -75 l0 -81 -107 3 -108 3 -5 75 c-4 66 -7 75 -25 78 -12
2 -24 0 -28 -4z" />
        <path
            d="M4406 5295 c-116 -41 -179 -188 -127 -300 67 -145 281 -158 366 -21
25 41 29 58 29 115 -2 159 -127 256 -268 206z m137 -19 c95 -39 143 -173 98
-271 -50 -109 -186 -148 -260 -75 -54 54 -66 192 -24 278 35 71 112 99 186 68z" />
        <path
            d="M4767 5303 c-4 -3 -7 -70 -7 -148 0 -126 2 -145 23 -185 30 -61 76
-90 141 -90 68 0 115 26 143 80 21 39 23 56 23 197 0 100 -3 152 -10 148 -6
-4 -10 -65 -10 -151 0 -159 -9 -196 -55 -232 -19 -15 -42 -22 -72 -22 -99 0
-113 29 -113 238 0 137 -2 161 -16 166 -20 8 -39 8 -47 -1z" />
        <path
            d="M5304 5300 c-33 -13 -74 -69 -74 -100 0 -46 19 -75 68 -106 83 -52
112 -83 112 -118 0 -97 -165 -113 -210 -21 -10 22 -15 26 -18 13 -10 -48 55
-92 133 -91 90 1 145 48 145 127 0 44 -34 86 -105 126 -87 50 -105 91 -60 135
18 19 35 25 70 25 28 0 44 4 40 10 -7 12 -72 12 -101 0z" />
        <path
            d="M5555 5300 c-3 -5 -6 -101 -6 -212 l0 -203 121 -3 c82 -2 119 1 115
8 -3 5 -43 10 -91 10 l-85 0 3 128 3 127 95 5 95 6 -95 4 -95 5 0 55 0 55 83
3 c49 2 80 7 77 12 -8 13 -212 13 -220 0z" />
        <path
            d="M6145 5296 c-51 -19 -120 -92 -134 -142 -31 -110 11 -213 104 -255
58 -27 149 -25 200 4 136 77 135 299 -3 380 -42 25 -118 30 -167 13z m152 -27
c77 -37 122 -155 93 -244 -18 -55 -75 -113 -122 -126 -124 -33 -210 63 -194
215 15 146 108 211 223 155z" />
        <path
            d="M6507 5303 c-4 -3 -7 -100 -7 -215 l0 -209 33 3 32 3 5 135 5 135 90
6 90 5 -92 2 -93 2 0 60 0 60 80 0 c47 0 80 4 80 10 0 11 -212 14 -223 3z" />
        <path
            d="M2474 4352 c-6 -4 -47 -90 -92 -192 -44 -102 -85 -197 -92 -212 -11
-22 -20 -28 -57 -30 -54 -4 -61 -22 -10 -26 20 -2 37 -5 37 -8 0 -3 -21 -54
-47 -115 -34 -81 -43 -113 -35 -121 8 -8 15 -1 27 28 8 21 32 77 53 124 l38
85 144 0 144 0 46 -113 c42 -105 47 -113 79 -122 37 -10 81 -4 81 12 0 15
-282 671 -294 685 -6 7 -16 9 -22 5z m24 -257 c22 -55 48 -117 56 -137 l16
-38 -129 0 -130 0 43 98 c24 53 53 119 65 146 12 29 25 46 30 40 5 -5 27 -54
49 -109z" />
        <path
            d="M3682 4278 c-21 -45 -65 -145 -97 -220 l-59 -137 -45 -3 c-58 -4 -69
-28 -12 -28 23 0 41 -2 41 -4 0 -2 -23 -55 -50 -117 -31 -70 -47 -116 -41
-122 12 -12 29 17 81 141 l43 103 145 -3 144 -3 44 -109 c24 -61 48 -114 53
-119 13 -13 88 -14 100 -2 11 12 -278 696 -297 703 -7 2 -27 -29 -50 -80z m72
-205 c31 -76 56 -141 56 -145 0 -5 -57 -8 -126 -8 -69 0 -124 4 -122 8 35 87
124 282 129 282 3 0 32 -62 63 -137z" />
        <path
            d="M4185 4348 c-10 -26 0 -698 10 -698 6 0 11 102 13 280 1 154 6 280
10 280 9 0 370 -211 414 -242 l27 -19 3 -150 c2 -91 7 -149 13 -149 6 0 10
123 10 350 0 225 -4 351 -10 353 -6 1 -12 -51 -15 -136 l-5 -138 -186 114
c-279 171 -278 171 -284 155z" />
        <path
            d="M4883 4350 l-23 -9 0 -341 0 -340 26 -10 c28 -11 75 -3 87 14 4 6 7
96 6 200 l-1 188 34 29 c18 15 38 28 43 28 6 0 75 -105 155 -234 80 -129 149
-233 155 -231 5 2 9 8 8 13 -1 5 -65 111 -142 236 -78 125 -141 232 -141 237
0 5 52 53 115 106 107 89 130 114 105 114 -5 0 -77 -55 -160 -122 -83 -68
-156 -123 -162 -123 -7 0 -10 37 -9 110 1 61 -2 116 -7 122 -11 17 -62 25 -89
13z" />
        <path
            d="M5813 4347 c-4 -7 -49 -104 -98 -217 l-90 -205 -48 -3 c-60 -4 -66
-29 -8 -34 l40 -3 -50 -114 c-31 -71 -46 -118 -41 -123 12 -12 15 -8 73 126
l48 111 144 3 145 3 42 -108 c24 -60 49 -114 56 -122 14 -16 89 -20 103 -6 10
12 -277 692 -296 699 -7 3 -16 0 -20 -7z m46 -289 c28 -69 51 -129 51 -132 0
-3 -57 -6 -126 -6 -97 0 -125 3 -121 13 3 6 31 72 62 145 46 107 60 131 70
120 7 -7 35 -70 64 -140z" />
        <path
            d="M6303 4349 l-23 -8 0 -341 0 -340 25 -10 c14 -5 38 -7 55 -4 l30 6 2
332 3 331 38 3 c82 7 190 -30 251 -87 43 -40 76 -117 76 -180 0 -92 -50 -167
-137 -209 -32 -15 -33 -15 -71 20 -22 20 -49 39 -61 43 -25 7 -57 -8 -71 -36
-9 -16 -6 -25 19 -49 25 -26 37 -30 84 -30 49 0 57 -3 72 -27 29 -46 68 -84
107 -104 45 -23 98 -25 98 -4 0 10 -10 15 -28 15 -34 0 -99 45 -136 93 -32 41
-32 45 -3 56 95 37 157 133 157 240 0 145 -98 252 -255 280 -86 15 -206 20
-232 10z m225 -495 c33 -23 27 -34 -17 -34 -40 0 -76 23 -66 41 9 14 58 11 83
-7z" />
        <path
            d="M7192 4278 c-21 -45 -65 -145 -98 -220 l-59 -137 -44 -3 c-58 -4 -68
-28 -12 -28 23 0 41 -1 41 -3 0 -2 -23 -54 -50 -117 -29 -64 -47 -117 -42
-122 13 -13 23 5 77 130 l48 112 142 0 143 0 32 -77 c66 -161 65 -160 99 -166
43 -9 83 7 74 29 -49 128 -293 679 -302 682 -6 2 -28 -31 -49 -80z m71 -205
c32 -76 57 -141 57 -145 0 -5 -57 -8 -126 -8 -69 0 -124 4 -122 8 54 129 123
282 128 282 3 0 32 -62 63 -137z" />
        <path
            d="M7695 4348 c-10 -26 0 -698 10 -698 6 0 11 82 13 220 2 166 5 220 15
220 6 -1 68 -100 136 -220 68 -121 127 -220 131 -220 4 0 63 104 130 230 68
127 127 230 131 230 5 0 10 -102 11 -227 l3 -226 26 -9 c16 -5 37 -5 52 1 l27
11 0 344 c0 190 -4 347 -8 350 -4 2 -13 2 -18 -2 -6 -4 -78 -132 -159 -284
-82 -153 -152 -278 -155 -278 -6 0 -62 100 -274 489 -41 74 -61 94 -71 69z" />
        <path
            d="M2942 4338 c-15 -15 -17 -654 -2 -678 8 -12 41 -15 196 -15 139 0
188 3 191 12 3 9 -30 13 -134 15 l-138 3 -5 335 -5 335 -45 3 c-26 2 -50 -2
-58 -10z" />
    </g>
</svg>